<svg width="25" height="24" viewBox="0 0 25 24" fill="none" xmlns="http://www.w3.org/2000/svg">
<path d="M23.1952 13.7622V11.5426C23.1952 7.35747 23.1952 5.26489 21.895 3.96471C20.5949 2.66455 18.5023 2.66455 14.3171 2.66455M14.3171 22.6403H9.87809C5.69291 22.6403 3.60034 22.6403 2.30016 21.3401C1 20.04 1 17.9473 1 13.7622V11.5426C1 7.35747 1 5.26489 2.30016 3.96471C3.60034 2.66455 5.69291 2.66455 9.87809 2.66455" stroke="#A855F7" stroke-width="2" stroke-linecap="round"/>
<path d="M6.54871 2.66464V1" stroke="#A855F7" stroke-width="2" stroke-linecap="round"/>
<path d="M17.6465 2.66464V1" stroke="#A855F7" stroke-width="2" stroke-linecap="round"/>
<path d="M18.7561 21.5306C20.5948 21.5306 22.0854 20.0401 22.0854 18.2014C22.0854 16.3626 20.5948 14.8721 18.7561 14.8721C16.9174 14.8721 15.4268 16.3626 15.4268 18.2014C15.4268 20.0401 16.9174 21.5306 18.7561 21.5306Z" stroke="#A855F7" stroke-width="2"/>
<path d="M21.5307 20.9756L23.1954 22.6402" stroke="#A855F7" stroke-width="2" stroke-linecap="round"/>
<path d="M22.6404 8.21338H17.2303H10.7104M1 8.21338H5.30033" stroke="#A855F7" stroke-width="2" stroke-linecap="round"/>
</svg>
