<svg width="25" height="21" viewBox="0 0 25 21" fill="none" xmlns="http://www.w3.org/2000/svg">
<g opacity="0.34">
<path d="M2.67643 13.8884C1.72547 12.6529 1.25 12.0352 1.25 10.2009C1.25 8.36666 1.72547 7.74897 2.67643 6.51352C4.57522 4.04667 7.75969 1.25 12.4387 1.25C17.1176 1.25 20.302 4.04667 22.2009 6.51352C23.1518 7.74897 23.6273 8.36666 23.6273 10.2009C23.6273 12.0352 23.1518 12.6529 22.2009 13.8884C20.302 16.3551 17.1176 19.1519 12.4387 19.1519C7.75969 19.1519 4.57522 16.3551 2.67643 13.8884Z" stroke="white" stroke-width="2.5"/>
<path d="M15.7953 10.201C15.7953 12.0548 14.2925 13.5576 12.4387 13.5576C10.5848 13.5576 9.08206 12.0548 9.08206 10.201C9.08206 8.34711 10.5848 6.84436 12.4387 6.84436C14.2925 6.84436 15.7953 8.34711 15.7953 10.201Z" stroke="white" stroke-width="2.5"/>
</g>
</svg>
