<svg width="17" height="17" viewBox="0 0 17 17" fill="none" xmlns="http://www.w3.org/2000/svg">
<path fill-rule="evenodd" clip-rule="evenodd" d="M1 7.38443V9.51257C1 13.0386 3.85841 15.897 7.38443 15.897H9.51257C13.0386 15.897 15.897 13.0386 15.897 9.51257V7.38443C15.897 3.85841 13.0386 1 9.51257 1H7.38443C3.85841 1 1 3.85841 1 7.38443Z" stroke="#A855F7" stroke-width="2" stroke-linecap="round" stroke-linejoin="round"/>
<path d="M8.44849 8.44849V12.7048" stroke="#A855F7" stroke-width="2" stroke-linecap="round"/>
<path d="M8.44836 5.7887C8.70516 5.78861 8.92037 5.60533 8.96985 5.36292L8.98059 5.25647C8.98059 4.99962 8.79725 4.7845 8.55481 4.73499L8.44836 4.72424M8.44836 5.7887V4.72424M8.44836 5.7887L8.34094 5.77795C8.1332 5.73531 7.96933 5.57073 7.92688 5.36292L7.91614 5.25647C7.91614 4.96311 8.155 4.72424 8.44836 4.72424M8.44836 5.7887V4.72424" fill="black" stroke="#A855F7" stroke-width="2.4"/>
<path d="M8.58405 5.25671C8.58384 5.33147 8.52307 5.39225 8.4483 5.39246C8.39202 5.39246 8.34297 5.3582 8.32233 5.30945L8.31158 5.25671C8.31158 5.18165 8.37323 5.12 8.4483 5.12L8.50104 5.13074C8.5498 5.15139 8.58405 5.20044 8.58405 5.25671Z" fill="#A855F7" stroke="#A855F7" stroke-width="2.4"/>
</svg>
