<svg width="65" height="65" viewBox="0 0 65 65" fill="none" xmlns="http://www.w3.org/2000/svg">
<g opacity="0.26">
<circle cx="32.2566" cy="32.2566" r="32.2566" fill="url(#paint0_linear_63_66)"/>
<mask id="mask0_63_66" style="mask-type:luminance" maskUnits="userSpaceOnUse" x="17" y="17" width="31" height="31">
<path d="M47.302 17.2112H17.2114V47.3018H47.302V17.2112Z" fill="white"/>
</mask>
<g mask="url(#mask0_63_66)">
<path fill-rule="evenodd" clip-rule="evenodd" d="M37.2718 29.0145L46.9348 19.3515C47.4244 18.8619 47.4244 18.068 46.9348 17.5784C46.4452 17.0888 45.6513 17.0888 45.1617 17.5784L17.5786 45.1614C17.089 45.651 17.089 46.4449 17.5786 46.9345C18.0683 47.4241 18.8621 47.4241 19.3518 46.9345L26.1065 40.1798C27.5276 41.283 29.2203 41.9839 31.0053 42.2083C31.0038 42.2343 31.0029 42.2603 31.0029 42.2867V44.7942C31.0029 45.4867 31.5643 46.048 32.2567 46.048C32.9492 46.048 33.5105 45.4867 33.5105 44.7942V42.2867C33.5105 42.2603 33.5096 42.2343 33.5081 42.2083C35.7069 41.9318 37.7655 40.9325 39.3492 39.3489C41.2301 37.4679 42.2869 34.9166 42.2869 32.2565V29.7489C42.2869 29.0565 41.7256 28.4951 41.0331 28.4951C40.3407 28.4951 39.7794 29.0565 39.7794 29.7489V32.2565C39.7794 34.2516 38.9868 36.165 37.576 37.5757C36.1652 38.9866 34.2518 39.7791 32.2567 39.7791C30.6845 39.7791 29.1631 39.287 27.8983 38.3879L29.7093 36.577C30.4559 37.0181 31.3275 37.2716 32.2567 37.2716C35.0264 37.2716 37.2718 35.0262 37.2718 32.2565V29.0145ZM34.7643 31.522L31.607 34.6793C31.814 34.7346 32.0318 34.764 32.2567 34.764C33.6416 34.764 34.7643 33.6414 34.7643 32.2565V31.522Z" fill="white"/>
<path d="M27.2416 23.4799C27.2416 20.7102 29.4869 18.4648 32.2567 18.4648C34.7429 18.4648 36.8044 20.2728 37.2025 22.6456C37.3171 23.3285 36.8563 23.975 36.1735 24.0896C35.4906 24.2041 34.8441 23.7434 34.7295 23.0605C34.5307 21.8755 33.4979 20.9724 32.2567 20.9724C30.8718 20.9724 29.7492 22.0951 29.7492 23.4799V30.3757C29.7492 31.0682 29.1878 31.6295 28.4954 31.6295C27.8029 31.6295 27.2416 31.0682 27.2416 30.3757V23.4799Z" fill="white"/>
<path d="M24.7341 29.7489C24.7341 29.0564 24.1727 28.4951 23.4803 28.4951C22.7879 28.4951 22.2265 29.0564 22.2265 29.7489V32.2564C22.2265 33.2358 22.3698 34.2004 22.6446 35.1222C22.8425 35.7858 23.5408 36.1633 24.2044 35.9655C24.868 35.7676 25.2455 35.0693 25.0476 34.4058C24.8415 33.7145 24.7341 32.991 24.7341 32.2564V29.7489Z" fill="white"/>
</g>
</g>
<defs>
<linearGradient id="paint0_linear_63_66" x1="32.2566" y1="0" x2="32.2566" y2="64.5132" gradientUnits="userSpaceOnUse">
<stop stop-color="#A855F7"/>
<stop offset="1" stop-color="#C78DFF"/>
</linearGradient>
</defs>
</svg>
