<svg width="49" height="49" viewBox="0 0 49 49" fill="none" xmlns="http://www.w3.org/2000/svg">
<path d="M5.05208 15.1355C6.28017 14.2625 7.75644 13.8074 9.26293 13.8376C17.6252 13.8376 17.1001 35.635 27.1863 35.635C35.9251 35.635 35.4198 17.7116 43.6631 16.047" stroke="#9B4DFF" stroke-width="3" stroke-linecap="round" stroke-linejoin="round"/>
<path d="M5.09131 18.207C11.5513 21.1794 12.3036 35.635 21.5575 35.635C30.8115 35.635 29.9286 15.8166 37.3303 13.8499C38.1287 13.6133 41.1538 13.3569 42.2306 14.0705C43.1138 14.4634 42.6583 14.1052 43.3013 14.827" stroke="#9B4DFF" stroke-width="3" stroke-linecap="round" stroke-linejoin="round"/>
<path d="M19.6357 1.93262C24.0062 1.06331 28.5364 1.50964 32.6533 3.21484C36.7704 4.92018 40.2899 7.80843 42.7656 11.5137C45.2413 15.2189 46.5625 19.5751 46.5625 24.0312C46.5595 30.006 44.1848 35.7352 39.96 39.96C35.735 44.1849 30.0053 46.5587 24.0303 46.5615C19.5744 46.5613 15.2186 45.2411 11.5137 42.7656C7.80843 40.2899 4.92018 36.7704 3.21484 32.6533C1.50964 28.5364 1.06331 24.0062 1.93262 19.6357C2.80199 15.2651 4.94856 11.2507 8.09961 8.09961C11.2507 4.94856 15.2651 2.80199 19.6357 1.93262Z" fill="#A855F7" fill-opacity="0.17" stroke="#9B4DFF" stroke-width="3" stroke-linecap="round" stroke-linejoin="round"/>
</svg>
