<svg width="50" height="50" viewBox="0 0 50 50" fill="none" xmlns="http://www.w3.org/2000/svg">
<path d="M24.9023 0.25C31.4408 0.25 37.7115 2.84741 42.335 7.4707C46.958 12.0939 49.5556 18.3642 49.5557 24.9023C49.5557 29.7781 48.1094 34.5447 45.4004 38.5986C42.6916 42.6529 38.8415 45.8128 34.3369 47.6787C29.8321 49.5446 24.8748 50.0331 20.0928 49.082C15.3108 48.1307 10.9184 45.7824 7.4707 42.335C4.02297 38.8871 1.67484 34.494 0.723633 29.7119C-0.227528 24.9299 0.261099 19.9734 2.12695 15.4688C3.99286 10.9641 7.15196 7.11319 11.2061 4.4043C15.2601 1.6955 20.0267 0.250072 24.9023 0.25ZM4.01074 26.9912L4.0127 27.0049C4.47772 31.3121 6.25983 35.3715 9.11621 38.6289C11.9725 41.8859 15.7641 44.1826 19.9736 45.2061L20.7188 45.3877L20.2236 44.8018C15.9042 39.6952 13.1054 33.4785 12.1455 26.8594L12.1143 26.6445H4.01074V26.9912ZM37.6602 26.8594C36.7003 33.4785 33.9013 39.6952 29.582 44.8018L29.5225 44.8721V45.3643L29.832 45.2891C34.0663 44.2555 37.8754 41.9336 40.7344 38.6436C43.5931 35.3536 45.3609 31.2571 45.793 26.9199L45.8203 26.6445H37.6914L37.6602 26.8594ZM15.8311 27.0254C17.1179 33.6247 20.1915 39.7447 24.7178 44.7168L24.9023 44.9199L25.0879 44.7168C29.6142 39.7447 32.6878 33.6247 33.9746 27.0254L34.0332 26.7275H15.7725L15.8311 27.0254ZM19.9736 4.5166C15.7517 5.54509 11.9513 7.85428 9.09375 11.1279C6.2361 14.4017 4.46132 18.4795 4.0127 22.8018L3.9834 23.0771H12.1143L12.1455 22.8633C13.1053 16.2441 15.9042 10.0275 20.2236 4.9209L20.7197 4.33496L19.9736 4.5166ZM24.7178 5.08887C20.1916 10.0608 17.1179 16.1801 15.8311 22.7793L15.7725 23.0771H34.0332L33.9746 22.7793C32.6878 16.1801 29.6141 10.0608 25.0879 5.08887L24.9023 4.88574L24.7178 5.08887ZM29.582 4.9209C33.9013 10.0275 36.7004 16.2442 37.6602 22.8633L37.6914 23.0771H45.8213L45.793 22.8018C45.3444 18.4795 43.5695 14.4017 40.7119 11.1279C37.8544 7.8543 34.054 5.54513 29.832 4.5166L29.0859 4.33496L29.582 4.9209Z" fill="#9B4DFF" stroke="#1B1623" stroke-width="0.5"/>
</svg>
