<svg width="50" height="22" viewBox="0 0 50 22" fill="none" xmlns="http://www.w3.org/2000/svg">
<path d="M12.8125 0.25C15.5807 0.250056 17.5486 1.63107 19.0605 3.5498C20.3017 5.12549 21.1808 7.04883 22.0391 8.57324V8.57422L22.0508 8.59668H22.0518L23.9141 12.0127L23.916 12.0166C24.1524 12.4312 24.3929 12.8974 24.6543 13.3936C24.9145 13.8874 25.194 14.4075 25.5029 14.918L25.6758 15.2031L25.9014 14.957C25.9473 14.9069 25.9918 14.8557 26.0352 14.8057C26.3823 14.4047 26.6877 13.985 26.9688 13.584C27.2526 13.1789 27.5067 12.8003 27.7617 12.4629H27.7627L29.6348 9.96484H29.6357C30.4529 8.86831 31.3262 7.42198 32.5479 6.21387C34.0023 4.77529 35.866 3.6875 38.4375 3.6875C39.7694 3.68752 40.8387 3.88973 41.749 4.25391L41.8789 4.30566L41.9912 4.22266C43.3145 3.23823 44.7897 2.75 46.5625 2.75C47.4235 2.75002 48.0624 2.9392 48.6729 3.1582C49.0783 3.30369 49.4097 3.60373 49.5938 3.99316C49.7778 4.38271 49.7994 4.82971 49.6543 5.23535C49.5088 5.64096 49.208 5.9722 48.8184 6.15625C48.4288 6.34021 47.9818 6.36199 47.5762 6.2168C47.3147 6.12317 46.9958 6.00003 46.5625 6C46.0127 6 45.5097 6.08487 45.043 6.25L44.6924 6.37402L44.9404 6.65234C45.7734 7.58754 46.5755 8.69613 47.5371 9.94531L47.5498 9.96191V9.96289L49.4248 12.4629C49.683 12.8076 49.7942 13.2406 49.7334 13.667C49.6725 14.0936 49.4442 14.4786 49.0996 14.7373C48.7549 14.9955 48.3219 15.1067 47.8955 15.0459C47.4689 14.985 47.0839 14.7567 46.8252 14.4121L44.9629 11.9297L44.9609 11.9268L44.3105 11.0635C43.6825 10.2158 43.1104 9.42306 42.5088 8.75586L42.2988 8.52246L42.1182 8.78027C41.8686 9.13858 41.631 9.50514 41.4053 9.87891L41.4014 9.88672L39.2529 13.7217L39.2471 13.7314C38.5064 15.2013 37.1368 17.5369 35.1533 19.1895C33.6549 20.4375 31.8332 21.2985 29.6982 21.3125C27.7715 21.3252 26.2523 20.6053 25.0156 19.4941L24.9111 19.4004L24.7773 19.4404C24.1059 19.6405 23.3495 19.7543 22.4912 19.75C20.1517 19.7382 18.1697 18.6944 16.6123 17.4121C15.0546 16.1295 13.938 14.6207 13.3359 13.7139H13.335L9.63086 8.1582L9.625 8.14844L9.61719 8.13965L9.30371 7.76562C8.98732 7.40196 8.66278 7.07039 8.32324 6.77734L8.10645 6.58887L7.9502 6.83105C7.19287 8.00399 6.45959 9.37827 5.625 10.8135V10.8145L3.28223 14.874C3.06676 15.2472 2.71211 15.5202 2.2959 15.6318C1.8797 15.7435 1.43584 15.6849 1.0625 15.4697C0.689563 15.2542 0.417297 14.8994 0.305664 14.4834C0.194056 14.0673 0.252707 13.6242 0.467773 13.251L2.81152 9.18848L2.81055 9.1875L2.81445 9.18262C3.52966 7.95307 4.1636 6.80213 4.7998 5.75488L5.03027 5.375H4.58691C4.11935 5.37484 3.71649 5.37423 3.37695 5.39648C3.0382 5.41869 2.74066 5.46428 2.4873 5.56738C2.08803 5.7296 1.64027 5.72702 1.24316 5.55957C0.895809 5.41301 0.611955 5.15085 0.4375 4.82031L0.369141 4.6748C0.207078 4.27569 0.210637 3.82859 0.37793 3.43164C0.545369 3.03455 0.863594 2.7202 1.2627 2.55762C1.96798 2.27077 3.01953 2.125 4.6875 2.125C5.56577 2.12501 6.37091 2.23537 7.11914 2.44824L7.25586 2.4873L7.35938 2.38965C8.78044 1.04073 10.4715 0.25 12.8125 0.25ZM38.4375 6.9375C36.4783 6.9375 35.2137 8.02404 34.2666 9.13867C33.4559 10.0928 32.7995 11.1581 32.2402 11.9082L32.2373 11.9121L30.3633 14.4111L30.3584 14.417C29.6712 15.3266 28.9846 16.3821 28.0801 17.3301L27.8408 17.5801L28.1533 17.7285C28.6289 17.955 29.1501 18.0692 29.6768 18.0625V18.0615L29.6787 18.0625L29.6777 18.0615C31.4136 18.0499 32.7661 17.0862 33.7998 16.0117C35.0247 14.7389 35.8663 13.2209 36.3584 12.2402L36.3594 12.2412C36.371 12.2184 36.3822 12.1951 36.3945 12.1729L38.5781 8.27539C38.7671 7.96075 38.964 7.64986 39.168 7.34473L39.4062 6.98926L38.9785 6.95703C38.805 6.94403 38.6247 6.9375 38.4375 6.9375ZM12.8125 3.5C11.9625 3.5 11.2486 3.68569 10.625 4.01758L10.3096 4.18457L10.5752 4.42383C11.1353 4.92738 11.6739 5.50998 12.2031 6.16797V6.16895C12.2337 6.20725 12.263 6.24587 12.2891 6.28516V6.28613L16.0391 11.9111V11.9102L16.041 11.9131V11.9141C16.4479 12.5266 17.1684 13.6198 18.1914 14.582C19.2148 15.5445 20.5613 16.395 22.2227 16.4912L22.6816 16.5176L22.4541 16.1182C22.2037 15.6782 21.969 15.2396 21.7432 14.8174C21.518 14.3963 21.3009 13.9897 21.0889 13.6182L21.0879 13.6172L21.0742 13.5928L21.0732 13.5908L19.2061 10.167L19.2041 10.1641L18.9219 9.64746C18.3021 8.48337 17.6177 7.05752 16.7188 5.83887L16.5078 5.56152C15.6372 4.45673 14.5041 3.50006 12.8125 3.5Z" fill="#9B4DFF" stroke="#1B1623" stroke-width="0.5"/>
</svg>
