<svg width="53" height="54" viewBox="0 0 53 54" fill="none" xmlns="http://www.w3.org/2000/svg">
<path d="M8.94995 37.9498V46.3248C8.94922 47.3503 9.2488 48.3533 9.81163 49.2103C10.3744 50.0673 11.176 50.741 12.1172 51.1478C13.0584 51.5545 14.0981 51.6768 15.108 51.4993C16.1178 51.322 17.0537 50.853 17.8 50.15L24.3249 44H26.4999C40.2999 44 51.4999 34.5 51.4999 22.75C51.4999 11 40.2999 1.5 26.4999 1.5C12.7 1.5 1.5 11.025 1.5 22.75C1.55617 25.672 2.2577 28.5453 3.5543 31.1643C4.8509 33.7835 6.7105 36.0835 9 37.8998L8.94995 37.9498Z" fill="#A855F7" fill-opacity="0.17" stroke="#A855F7" stroke-width="3" stroke-linecap="round" stroke-linejoin="round"/>
<path d="M38.9512 20.3247H13.9512" stroke="#A855F7" stroke-width="3" stroke-linecap="round" stroke-linejoin="round"/>
<path d="M28.9512 27.8247H13.9512" stroke="#A855F7" stroke-width="3" stroke-linecap="round" stroke-linejoin="round"/>
</svg>
