<svg width="22" height="18" viewBox="0 0 22 18" fill="none" xmlns="http://www.w3.org/2000/svg">
<path d="M10.6273 6.67639V10.6273M8.91618 7.66412L12.3378 9.63959M12.3375 7.66412L8.91588 9.63959" stroke="white" stroke-width="1.5" stroke-linecap="round"/>
<path d="M5.42436 6.67639V10.6273M3.71319 7.66412L7.1348 9.63959M7.13457 7.66412L3.71297 9.63959" stroke="white" stroke-width="1.5" stroke-linecap="round"/>
<path d="M15.8308 6.67639V10.6273M14.1195 7.66412L17.5411 9.63959M17.5409 7.66412L14.1193 9.63959" stroke="white" stroke-width="1.5" stroke-linecap="round"/>
<path d="M20.5046 8.65186C20.5046 12.3768 20.5046 14.2394 19.3474 15.3965C18.1903 16.5537 16.3277 16.5537 12.6028 16.5537H8.65186C4.92688 16.5537 3.0644 16.5537 1.9072 15.3965C0.75 14.2394 0.75 12.3768 0.75 8.65186C0.75 4.92688 0.75 3.0644 1.9072 1.9072C3.0644 0.75 4.92688 0.75 8.65186 0.75H12.6028C16.3277 0.75 18.1903 0.75 19.3474 1.9072C19.9926 2.55236 20.2781 3.41677 20.4044 4.70093" stroke="white" stroke-width="1.5" stroke-linecap="round"/>
</svg>
