<svg width="19" height="21" viewBox="0 0 19 21" fill="none" xmlns="http://www.w3.org/2000/svg">
<path d="M5.52449 18.0008C7.41976 19.1232 8.36743 19.6844 9.40796 19.6844C10.4485 19.6844 11.3962 19.1232 13.2914 18.0008L13.9325 17.6211C15.8277 16.4988 16.7754 15.9376 17.2957 15.0133C17.8159 14.089 17.8159 12.9666 17.8159 10.7217M17.6428 6.60531C17.5661 6.25739 17.4554 5.9549 17.2957 5.67109C16.7754 4.74675 15.8277 4.18556 13.9325 3.06318L13.2914 2.68356C11.3962 1.56118 10.4485 1 9.40796 1C8.36743 1 7.41976 1.56118 5.52449 2.68356L4.88347 3.06318C2.9882 4.18556 2.04057 4.74675 1.52028 5.67109C1 6.59543 1 7.71781 1 9.96261V10.7217C1 12.9666 1 14.089 1.52028 15.0133C1.73174 15.3889 2.01378 15.7046 2.40133 16.0224" stroke="white" stroke-opacity="0.39" stroke-width="2" stroke-linecap="round"/>
<path d="M9.40794 13.1449C10.9558 13.1449 12.2106 11.8901 12.2106 10.3422C12.2106 8.79434 10.9558 7.53955 9.40794 7.53955C7.86008 7.53955 6.60529 8.79434 6.60529 10.3422C6.60529 11.8901 7.86008 13.1449 9.40794 13.1449Z" stroke="white" stroke-opacity="0.39" stroke-width="2"/>
</svg>
