<svg width="25" height="25" viewBox="0 0 25 25" fill="none" xmlns="http://www.w3.org/2000/svg">
<path fill-rule="evenodd" clip-rule="evenodd" d="M12.2419 0C5.48087 0 0 5.48087 0 12.2419C0 14.2496 0.484016 16.1467 1.34218 17.8204L0.024943 23.353C-0.0113044 23.5056 -0.00789938 23.6649 0.0348336 23.8157C0.0775666 23.9666 0.158205 24.104 0.269069 24.2148C0.379934 24.3257 0.517333 24.4063 0.668183 24.4491C0.819033 24.4918 0.978311 24.4952 1.13085 24.4589L6.66344 23.1417C8.33722 23.9999 10.2343 24.4839 12.2419 24.4839C19.003 24.4839 24.4839 19.003 24.4839 12.2419C24.4839 5.48087 19.003 0 12.2419 0ZM1.83629 12.2419C1.83629 6.49512 6.49512 1.83629 12.2419 1.83629C17.9888 1.83629 22.6476 6.49512 22.6476 12.2419C22.6476 17.9888 17.9888 22.6476 12.2419 22.6476C10.4234 22.6476 8.71626 22.1819 7.23086 21.3639C7.03096 21.2538 6.79728 21.2222 6.5753 21.275L2.15688 22.327L3.20892 17.9086C3.26176 17.6866 3.23006 17.4529 3.12001 17.253C2.30194 15.7675 1.83629 14.0605 1.83629 12.2419ZM8.87893 15.605C10.7114 17.4373 13.1547 18.6665 15.8802 18.9591C17.6823 19.1524 18.975 17.6677 18.975 16.1255V15.055C18.975 14.4311 18.7739 13.8239 18.4015 13.3234C18.0292 12.8229 17.5053 12.4558 16.9078 12.2765L16.8226 12.251L16.7353 12.2338L15.5078 11.9921C15.113 11.8899 14.7012 11.8721 14.2991 11.9398C13.897 12.0075 13.5137 12.1592 13.1742 12.385C12.7746 12.0702 12.4136 11.7093 12.0989 11.3097C12.3248 10.9702 12.4765 10.5868 12.5443 10.1847C12.612 9.78251 12.5942 9.3706 12.492 8.97579L12.2499 7.74838L12.2328 7.66116L12.2072 7.57593C12.028 6.97846 11.6609 6.4547 11.1604 6.08235C10.66 5.70999 10.0528 5.50889 9.42905 5.50887H8.35819C6.81616 5.50887 5.33137 6.80132 5.52464 8.60348C5.81722 11.3288 7.04631 13.7725 8.87893 15.605ZM14.0285 14.0473C14.1644 13.9115 14.3345 13.8149 14.5209 13.768C14.7072 13.721 14.9028 13.7254 15.0868 13.7806L16.3803 14.0354C16.5996 14.1012 16.7917 14.236 16.9283 14.4196C17.0649 14.6033 17.1387 14.8261 17.1387 15.055V16.1255C17.1387 16.7133 16.6607 17.196 16.0763 17.1332C14.6161 16.9772 13.2099 16.4943 11.9619 15.7205C11.3146 15.3194 10.7158 14.8449 10.1775 14.3064C9.63897 13.768 9.16445 13.1693 8.76339 12.522C7.98958 11.2739 7.50674 9.86763 7.35068 8.40746C7.28794 7.82306 7.77057 7.34517 8.35819 7.34517H9.4289C9.65775 7.34523 9.88048 7.41905 10.0641 7.55569C10.2476 7.69233 10.3823 7.8845 10.448 8.10371L10.7031 9.39691C10.7584 9.58099 10.7627 9.77658 10.7158 9.96294C10.6688 10.1493 10.5723 10.3195 10.4364 10.4554L10.265 10.6268C10.1516 10.7397 10.07 10.8806 10.0286 11.0352C9.97167 11.2499 9.99738 11.4822 10.1209 11.6814C10.4569 12.2241 10.8546 12.7262 11.306 13.1775C11.7574 13.629 12.2595 14.0268 12.8023 14.3629C13.0016 14.4862 13.2337 14.5121 13.4485 14.4551C13.6031 14.4137 13.744 14.3321 13.857 14.2187L14.0285 14.0473Z" fill="#A855F7"/>
</svg>
