<svg width="223" height="81" viewBox="0 0 223 81" fill="none" xmlns="http://www.w3.org/2000/svg">
<path d="M36.032 62L18.944 40.176H12.352L32.64 15.28H43.072L24.768 37.68L24.512 33.2L47.104 62H36.032ZM5.76 62V15.28H14.848V62H5.76ZM66.1705 63.216C63.1838 63.216 60.5598 62.704 58.2985 61.68C56.0798 60.656 54.2238 59.2907 52.7305 57.584C51.2798 55.8347 50.1705 53.8933 49.4025 51.76C48.6772 49.6267 48.3145 47.4507 48.3145 45.232V44.016C48.3145 41.712 48.6772 39.4933 49.4025 37.36C50.1705 35.184 51.2798 33.264 52.7305 31.6C54.2238 29.8933 56.0585 28.5493 58.2345 27.568C60.4105 26.544 62.9278 26.032 65.7865 26.032C69.5412 26.032 72.6772 26.864 75.1945 28.528C77.7545 30.1493 79.6745 32.304 80.9545 34.992C82.2345 37.6373 82.8745 40.496 82.8745 43.568V46.768H52.0905V41.328H77.3065L74.5545 44.016C74.5545 41.7973 74.2345 39.8987 73.5945 38.32C72.9545 36.7413 71.9732 35.5253 70.6505 34.672C69.3705 33.8187 67.7492 33.392 65.7865 33.392C63.8238 33.392 62.1598 33.84 60.7945 34.736C59.4292 35.632 58.3838 36.9333 57.6585 38.64C56.9758 40.304 56.6345 42.3093 56.6345 44.656C56.6345 46.832 56.9758 48.7733 57.6585 50.48C58.3412 52.144 59.3865 53.4667 60.7945 54.448C62.2025 55.3867 63.9945 55.856 66.1705 55.856C68.3465 55.856 70.1172 55.4293 71.4825 54.576C72.8478 53.68 73.7225 52.592 74.1065 51.312H82.2985C81.7865 53.7013 80.8052 55.792 79.3545 57.584C77.9038 59.376 76.0478 60.7627 73.7865 61.744C71.5678 62.7253 69.0292 63.216 66.1705 63.216ZM91.97 62V27.248H100.866V62H91.97ZM87.106 33.904V27.248H100.866V33.904H87.106ZM95.234 23.088C93.4847 23.088 92.1833 22.64 91.33 21.744C90.5193 20.8053 90.114 19.6533 90.114 18.288C90.114 16.8373 90.5193 15.664 91.33 14.768C92.1833 13.872 93.4847 13.424 95.234 13.424C96.9833 13.424 98.2633 13.872 99.074 14.768C99.8847 15.664 100.29 16.8373 100.29 18.288C100.29 19.6533 99.8847 20.8053 99.074 21.744C98.2633 22.64 96.9833 23.088 95.234 23.088ZM111.567 62V15.28H120.463V62H111.567ZM107.215 21.936V15.28H120.463V21.936H107.215ZM185.869 62V27.248H192.909V42.16H192.269C192.269 38.6187 192.738 35.6747 193.677 33.328C194.615 30.9387 196.002 29.1467 197.837 27.952C199.714 26.7573 202.039 26.16 204.813 26.16H205.197C209.335 26.16 212.471 27.504 214.604 30.192C216.738 32.8373 217.805 36.8053 217.805 42.096V62H208.909V41.328C208.909 39.1947 208.29 37.4667 207.053 36.144C205.858 34.8213 204.194 34.16 202.061 34.16C199.885 34.16 198.114 34.8427 196.749 36.208C195.426 37.5307 194.765 39.3227 194.765 41.584V62H185.869Z" fill="white"/>
<path d="M133.284 29.5912C134.498 28.7283 135.957 28.2786 137.445 28.3085C145.709 28.3085 145.19 49.8499 155.158 49.8499C163.794 49.8499 163.295 32.137 171.442 30.492" stroke="#EC4899" stroke-width="4" stroke-linecap="round" stroke-linejoin="round"/>
<path d="M133.324 32.6265C139.708 35.564 140.451 49.8499 149.597 49.8499C158.742 49.8499 157.87 30.2641 165.184 28.3206C165.973 28.0867 168.963 27.8334 170.027 28.5385C170.9 28.9269 170.45 28.5729 171.085 29.2862" stroke="#6C2BFF" stroke-width="4" stroke-linecap="round" stroke-linejoin="round"/>
<path d="M148.381 15.9631C152.546 15.1345 156.865 15.5594 160.789 17.1848C164.713 18.8102 168.067 21.5625 170.427 25.0939C172.639 28.4047 173.884 32.261 174.031 36.2297L174.046 37.0246C174.043 42.7193 171.779 48.1795 167.752 52.2062C163.725 56.2333 158.264 58.4965 152.569 58.4992C148.322 58.4989 144.171 57.2405 140.64 54.8811C137.108 52.5214 134.356 49.1673 132.73 45.2434C131.105 41.3193 130.68 37.0009 131.509 32.8352C132.337 28.6696 134.382 24.8433 137.386 21.84C140.389 18.8368 144.215 16.7917 148.381 15.9631Z" stroke="white" stroke-width="7" stroke-linecap="round" stroke-linejoin="round"/>
</svg>
